<svg width="157" height="47" viewBox="0 0 157 47" fill="none" xmlns="http://www.w3.org/2000/svg">
<path d="M18.44 0.879997C23.176 0.879997 27.3147 1.84 30.856 3.76C34.44 5.63733 37.192 8.28266 39.112 11.696C41.032 15.1093 41.992 19.0133 41.992 23.408C41.992 27.76 41.0107 31.6427 39.048 35.056C37.128 38.4693 34.376 41.1573 30.792 43.12C27.2507 45.04 23.1333 46 18.44 46H0.584V0.879997H18.44ZM17.48 34.928C21.1493 34.928 24.0293 33.9253 26.12 31.92C28.2107 29.9147 29.256 27.0773 29.256 23.408C29.256 19.696 28.2107 16.8373 26.12 14.832C24.0293 12.784 21.1493 11.76 17.48 11.76H13.128V34.928H17.48ZM53.7265 46.512C51.5078 46.512 49.7158 45.9147 48.3505 44.72C47.0278 43.4827 46.3665 41.9253 46.3665 40.048C46.3665 38.1707 47.0278 36.6133 48.3505 35.376C49.7158 34.1387 51.5078 33.52 53.7265 33.52C55.9025 33.52 57.6518 34.1387 58.9745 35.376C60.3398 36.6133 61.0225 38.1707 61.0225 40.048C61.0225 41.8827 60.3398 43.4187 58.9745 44.656C57.6518 45.8933 55.9025 46.512 53.7265 46.512ZM83.9205 46.448C78.6725 46.448 74.3632 45.2107 70.9925 42.736C67.6218 40.2187 65.8085 36.6347 65.5525 31.984H78.9285C79.0565 33.5627 79.5258 34.7147 80.3365 35.44C81.1472 36.1653 82.1925 36.528 83.4725 36.528C84.6245 36.528 85.5632 36.2507 86.2885 35.696C87.0565 35.0987 87.4405 34.288 87.4405 33.264C87.4405 31.9413 86.8218 30.9173 85.5845 30.192C84.3472 29.4667 82.3418 28.656 79.5685 27.76C76.6245 26.7787 74.2352 25.84 72.4005 24.944C70.6085 24.0053 69.0298 22.6613 67.6645 20.912C66.3418 19.12 65.6805 16.7947 65.6805 13.936C65.6805 11.0347 66.4058 8.56 67.8565 6.512C69.3072 4.42133 71.3125 2.84267 73.8725 1.776C76.4325 0.709332 79.3338 0.175999 82.5765 0.175999C87.8245 0.175999 92.0058 1.41333 95.1205 3.888C98.2778 6.32 99.9632 9.75467 100.177 14.192H86.5445C86.5018 12.8267 86.0752 11.8027 85.2645 11.12C84.4965 10.4373 83.4938 10.096 82.2565 10.096C81.3178 10.096 80.5498 10.3733 79.9525 10.928C79.3552 11.4827 79.0565 12.272 79.0565 13.296C79.0565 14.1493 79.3765 14.896 80.0165 15.536C80.6992 16.1333 81.5312 16.6667 82.5125 17.136C83.4938 17.5627 84.9445 18.1173 86.8645 18.8C89.7232 19.7813 92.0698 20.7627 93.9045 21.744C95.7818 22.6827 97.3818 24.0267 98.7045 25.776C100.07 27.4827 100.753 29.6587 100.753 32.304C100.753 34.992 100.07 37.4027 98.7045 39.536C97.3818 41.6693 95.4405 43.3547 92.8805 44.592C90.3632 45.8293 87.3765 46.448 83.9205 46.448ZM112.664 46.512C110.445 46.512 108.653 45.9147 107.288 44.72C105.965 43.4827 105.304 41.9253 105.304 40.048C105.304 38.1707 105.965 36.6133 107.288 35.376C108.653 34.1387 110.445 33.52 112.664 33.52C114.84 33.52 116.589 34.1387 117.912 35.376C119.277 36.6133 119.96 38.1707 119.96 40.048C119.96 41.8827 119.277 43.4187 117.912 44.656C116.589 45.8933 114.84 46.512 112.664 46.512ZM156.426 0.879997V10.864H138.378V18.8H151.69V28.336H138.378V46H125.834V0.879997H156.426Z" fill="#0E3234"/>
</svg>
